<svg width="393" height="379" viewBox="0 0 393 379" fill="none" xmlns="http://www.w3.org/2000/svg">
<g clip-path="url(#clip0_638_1553)">
<path d="M152.933 38.3327C171.366 1.50475 223.924 1.50474 242.357 38.3327L376.609 306.561C393.249 339.807 369.075 378.94 331.897 378.94H63.3935C26.2154 378.94 2.04106 339.807 18.6812 306.561L152.933 38.3327Z" fill="url(#paint0_linear_638_1553)"/>
<mask id="mask0_638_1553" style="mask-type:alpha" maskUnits="userSpaceOnUse" x="-12" y="140" width="181" height="242">
<path d="M77.854 381.707C60.7278 381.707 45.4747 378.764 32.0948 372.877C18.7914 366.913 8.27861 358.732 0.556502 348.334C-7.08915 337.86 -11.0267 325.779 -11.256 312.094H38.7465C39.0523 317.828 40.9255 322.874 44.3661 327.232C47.8831 331.514 52.5469 334.839 58.3576 337.21C64.1683 339.58 70.7053 340.765 77.9687 340.765C85.5379 340.765 92.2278 339.427 98.0385 336.751C103.849 334.075 108.398 330.367 111.686 325.626C114.974 320.886 116.617 315.42 116.617 309.227C116.617 302.957 114.859 297.414 111.342 292.597C107.901 287.704 102.932 283.881 96.433 281.129C90.0106 278.376 82.365 277 73.496 277H51.5912V240.53H73.496C80.9887 240.53 87.6022 239.231 93.3365 236.631C99.1472 234.032 103.658 230.438 106.869 225.851C110.08 221.187 111.686 215.759 111.686 209.566C111.686 203.678 110.272 198.518 107.443 194.083C104.69 189.572 100.791 186.055 95.7448 183.532C90.7752 181.009 84.9645 179.747 78.3128 179.747C71.5846 179.747 65.4298 180.971 59.8485 183.417C54.2672 185.788 49.7945 189.19 46.4304 193.624C43.0663 198.059 41.2696 203.258 41.0402 209.221H-6.55395C-6.32458 195.689 -2.46353 183.761 5.02921 173.44C12.5219 163.118 22.6142 155.052 35.306 149.241C48.0742 143.354 62.4863 140.411 78.5421 140.411C94.7509 140.411 108.934 143.354 121.09 149.241C133.247 155.128 142.689 163.08 149.417 173.096C156.222 183.035 159.586 194.198 159.51 206.584C159.586 219.734 155.496 230.706 147.238 239.498C139.057 248.291 128.392 253.872 115.241 256.242V258.077C132.52 260.294 145.671 266.296 154.693 276.083C163.791 285.793 168.302 297.949 168.226 312.552C168.302 325.932 164.441 337.821 156.642 348.219C148.92 358.617 138.255 366.798 124.645 372.762C111.036 378.726 95.439 381.707 77.854 381.707Z" fill="white"/>
</mask>
<g mask="url(#mask0_638_1553)">
<path d="M152.933 38.3326C171.366 1.50462 223.924 1.50461 242.357 38.3326L376.609 306.561C393.249 339.807 369.075 378.94 331.897 378.94H63.3935C26.2154 378.94 2.04106 339.807 18.6812 306.561L152.933 38.3326Z" fill="white"/>
</g>
</g>
<defs>
<linearGradient id="paint0_linear_638_1553" x1="130" y1="111" x2="371.226" y2="379.471" gradientUnits="userSpaceOnUse">
<stop stop-color="#A7FFBF"/>
<stop offset="1" stop-color="#02AC09"/>
</linearGradient>
<clipPath id="clip0_638_1553">
<rect width="393" height="379" fill="white"/>
</clipPath>
</defs>
</svg>
