<svg width="279" height="127" viewBox="0 0 279 127" fill="none" xmlns="http://www.w3.org/2000/svg">
<g clip-path="url(#clip0_170_3183)">
<path d="M0 0H215.5C250.57 0 279 28.4299 279 63.5C279 98.5701 250.57 127 215.5 127H0V0Z" fill="url(#paint0_linear_170_3183)"/>
<path d="M26.216 103.616H21.288C22.212 106.346 23.906 108.544 26.524 109.608C26.104 109.958 25.558 110.7 25.292 111.176C22.758 109.986 21.134 107.942 20.042 105.24C19.286 107.578 17.774 109.762 14.806 111.19C14.54 110.728 14.05 110.126 13.56 109.776C16.766 108.348 18.096 106.024 18.642 103.616H13.826V101.894H18.922C19.062 100.578 19.048 99.304 19.062 98.156H20.882C20.868 99.304 20.854 100.592 20.714 101.894H26.216V103.616ZM36.814 108.194H38.242V107.536H36.814V108.194ZM35.442 107.536H34.112C34.084 107.746 34.07 107.97 34.028 108.194H35.442V107.536ZM36.044 104.428H34.42C34.294 104.61 34.14 104.778 33.986 104.946H35.638C35.778 104.792 35.918 104.61 36.044 104.428ZM36.814 105.982V106.598H38.242V105.982H36.814ZM34.126 105.982V106.598H35.442V105.982H34.126ZM30.08 105.716V100.802H29.142V105.716H30.08ZM39.768 104.946V109.776C39.768 110.462 39.614 110.784 39.124 110.994C38.634 111.19 37.92 111.204 36.968 111.204C36.884 110.826 36.674 110.322 36.478 109.986C37.08 110.014 37.78 110.014 37.976 110C38.172 110 38.242 109.944 38.242 109.762V109.244H33.734C33.426 110.014 32.894 110.728 31.998 111.26C31.774 110.98 31.13 110.504 30.78 110.294C32.432 109.342 32.628 108.04 32.628 106.92V106.178C32.46 106.304 32.278 106.43 32.096 106.542C31.942 106.29 31.62 105.912 31.34 105.66V107.186H29.142V108.39H27.882V99.304H31.34V105.38C32.39 104.722 33.132 103.924 33.622 103.126C32.908 103.252 32.236 103.364 31.648 103.476L31.396 102.146L31.998 102.076V99.052H33.132V101.936L33.678 101.866V98.156H34.938V99.542H36.086V100.732H34.938V101.698L36.086 101.53L36.156 102.65C35.792 102.72 35.414 102.79 35.05 102.86L35.358 102.916C35.288 103.07 35.204 103.224 35.12 103.378H36.856L37.08 103.308L38.018 103.938C37.808 104.26 37.542 104.624 37.262 104.946H39.768ZM38.06 102.104H38.998C39.278 102.104 39.348 101.95 39.39 100.998C39.656 101.208 40.188 101.404 40.538 101.488C40.412 102.888 40.076 103.28 39.152 103.28H37.85C36.632 103.28 36.352 102.902 36.352 101.698V98.156H37.696V99.78C38.27 99.486 38.858 99.15 39.264 98.87L40.174 99.738C39.404 100.214 38.466 100.662 37.696 100.97V101.684C37.696 102.062 37.738 102.104 38.06 102.104ZM42.764 111.19L41.434 110.364C42.134 109.692 42.638 108.642 42.904 107.634L44.304 108.11C43.996 109.23 43.534 110.42 42.764 111.19ZM44.864 108.18L46.222 107.97C46.46 108.796 46.586 109.874 46.586 110.56L45.13 110.77C45.172 110.098 45.06 109.02 44.864 108.18ZM47.132 108.152L48.392 107.858C48.7 108.586 49.008 109.538 49.092 110.14L47.734 110.518C47.678 109.902 47.412 108.908 47.132 108.152ZM49.288 107.9L50.464 107.494C50.828 108.04 51.22 108.81 51.388 109.286L50.114 109.762C50.002 109.258 49.638 108.488 49.288 107.9ZM50.772 100.34H45.06V100.956H50.772V100.34ZM45.06 102.65H50.772V101.992H45.06V102.65ZM54.356 105.562H45.06V106.192H54.034C54.034 106.192 54.02 106.57 53.992 106.752C53.81 109.258 53.614 110.322 53.25 110.728C52.956 111.036 52.676 111.148 52.27 111.19C51.92 111.246 51.332 111.246 50.688 111.218C50.674 110.812 50.506 110.252 50.296 109.888C50.814 109.944 51.276 109.944 51.472 109.944C51.682 109.944 51.794 109.916 51.92 109.804C52.102 109.594 52.27 108.936 52.382 107.368H43.408V99.192H46.698C46.824 98.814 46.922 98.394 46.964 98.072L48.952 98.198C48.812 98.548 48.644 98.884 48.476 99.192H52.41V103.798H45.06V104.414H54.356V105.562ZM63.5201 99.3409L60.2388 111.531H58.4142L61.6955 99.3409H63.5201ZM71.5975 99.598L70.6175 100.956C70.0855 100.536 68.9515 99.864 68.1815 99.43L69.1055 98.212C69.8615 98.604 71.0235 99.22 71.5975 99.598ZM70.8135 103.308L69.8475 104.694C69.3155 104.274 68.1675 103.644 67.3555 103.224L68.2795 101.992C69.0495 102.342 70.2255 102.916 70.8135 103.308ZM69.9035 105.604L71.2055 106.598C70.5895 108.096 69.8335 109.706 69.1195 111.064L67.6215 110.07C68.2935 108.992 69.2035 107.228 69.9035 105.604ZM72.4515 109.832C73.4735 109.496 74.4115 108.992 75.2235 108.348C74.4675 107.438 73.8795 106.402 73.3895 105.226C73.3055 106.738 73.0395 108.404 72.4515 109.832ZM75.0555 101.516H73.4455V103.462H75.0555V101.516ZM77.6175 104.932H74.8735C75.2515 105.772 75.7415 106.542 76.3295 107.214C76.8755 106.57 77.3095 105.8 77.6175 104.932ZM78.5835 103.406L79.6195 103.854C79.1855 105.646 78.4575 107.13 77.5055 108.32C78.3595 108.95 79.3675 109.468 80.5155 109.79C80.1655 110.126 79.6755 110.784 79.4515 111.204C78.2615 110.812 77.2535 110.224 76.3715 109.496C75.5035 110.252 74.5235 110.826 73.4595 111.232C73.2495 110.868 72.7595 110.196 72.4375 109.874C72.2415 110.35 71.9895 110.798 71.7095 111.19C71.4155 110.938 70.7155 110.518 70.3095 110.364C71.7235 108.404 71.8495 105.576 71.8495 103.546V99.976H75.0555V98.128H76.7075V99.976H78.9895L79.2695 99.906L80.4875 100.2C80.1795 101.264 79.7455 102.454 79.3395 103.21L77.8975 102.79C78.0515 102.468 78.2335 102.006 78.3875 101.516H76.7075V103.462H78.2895L78.5835 103.406ZM85.5975 99.598L84.6175 100.956C84.0855 100.536 82.9515 99.864 82.1815 99.43L83.1055 98.212C83.8615 98.604 85.0235 99.22 85.5975 99.598ZM84.8135 103.308L83.8475 104.694C83.3155 104.274 82.1675 103.644 81.3555 103.224L82.2795 101.992C83.0495 102.342 84.2255 102.916 84.8135 103.308ZM83.9035 105.604L85.2055 106.598C84.5895 108.096 83.8335 109.706 83.1195 111.064L81.6215 110.07C82.2935 108.992 83.2035 107.228 83.9035 105.604ZM86.4515 109.832C87.4735 109.496 88.4115 108.992 89.2235 108.348C88.4675 107.438 87.8795 106.402 87.3895 105.226C87.3055 106.738 87.0395 108.404 86.4515 109.832ZM89.0555 101.516H87.4455V103.462H89.0555V101.516ZM91.6175 104.932H88.8735C89.2515 105.772 89.7415 106.542 90.3295 107.214C90.8755 106.57 91.3095 105.8 91.6175 104.932ZM92.5835 103.406L93.6195 103.854C93.1855 105.646 92.4575 107.13 91.5055 108.32C92.3595 108.95 93.3675 109.468 94.5155 109.79C94.1655 110.126 93.6755 110.784 93.4515 111.204C92.2615 110.812 91.2535 110.224 90.3715 109.496C89.5035 110.252 88.5235 110.826 87.4595 111.232C87.2495 110.868 86.7595 110.196 86.4375 109.874C86.2415 110.35 85.9895 110.798 85.7095 111.19C85.4155 110.938 84.7155 110.518 84.3095 110.364C85.7235 108.404 85.8495 105.576 85.8495 103.546V99.976H89.0555V98.128H90.7075V99.976H92.9895L93.2695 99.906L94.4875 100.2C94.1795 101.264 93.7455 102.454 93.3395 103.21L91.8975 102.79C92.0515 102.468 92.2335 102.006 92.3875 101.516H90.7075V103.462H92.2895L92.5835 103.406Z" fill="white"/>
<path d="M217.66 139.203C211.243 139.203 205.529 138.1 200.516 135.895C195.531 133.66 191.592 130.595 188.699 126.699C185.835 122.775 184.359 118.249 184.273 113.121H203.008C203.122 115.27 203.824 117.16 205.113 118.793C206.431 120.397 208.178 121.643 210.355 122.531C212.533 123.419 214.982 123.863 217.703 123.863C220.539 123.863 223.046 123.362 225.223 122.359C227.4 121.357 229.104 119.967 230.336 118.191C231.568 116.415 232.184 114.367 232.184 112.047C232.184 109.698 231.525 107.621 230.207 105.816C228.918 103.983 227.056 102.551 224.621 101.52C222.215 100.488 219.35 99.9727 216.027 99.9727H207.82V86.3086H216.027C218.835 86.3086 221.313 85.8216 223.461 84.8477C225.638 83.8737 227.328 82.5273 228.531 80.8086C229.734 79.0612 230.336 77.0273 230.336 74.707C230.336 72.5013 229.806 70.5677 228.746 68.9062C227.715 67.2161 226.254 65.8984 224.363 64.9531C222.501 64.0078 220.324 63.5352 217.832 63.5352C215.311 63.5352 213.005 63.9935 210.914 64.9102C208.823 65.7982 207.147 67.0729 205.887 68.7344C204.626 70.3958 203.953 72.3437 203.867 74.5781H186.035C186.121 69.5078 187.568 65.0391 190.375 61.1719C193.182 57.3047 196.964 54.2825 201.719 52.1055C206.503 49.8997 211.902 48.7969 217.918 48.7969C223.991 48.7969 229.305 49.8997 233.859 52.1055C238.414 54.3112 241.952 57.2904 244.473 61.043C247.022 64.7669 248.283 68.9492 248.254 73.5898C248.283 78.5169 246.75 82.6276 243.656 85.9219C240.591 89.2161 236.595 91.3073 231.668 92.1953V92.8828C238.142 93.7135 243.069 95.9622 246.449 99.6289C249.858 103.267 251.548 107.822 251.52 113.293C251.548 118.306 250.102 122.76 247.18 126.656C244.286 130.552 240.29 133.617 235.191 135.852C230.092 138.086 224.249 139.203 217.66 139.203Z" fill="white"/>
</g>
<defs>
<linearGradient id="paint0_linear_170_3183" x1="156.984" y1="-2.45338e-07" x2="85.4104" y2="121.033" gradientUnits="userSpaceOnUse">
<stop offset="0.0833333" stop-color="#A7FFBF"/>
<stop offset="1" stop-color="#02AC09"/>
</linearGradient>
<clipPath id="clip0_170_3183">
<path d="M0 0H215.5C250.57 0 279 28.4299 279 63.5C279 98.5701 250.57 127 215.5 127H0V0Z" fill="white"/>
</clipPath>
</defs>
</svg>
