<svg width="279" height="127" viewBox="0 0 279 127" fill="none" xmlns="http://www.w3.org/2000/svg">
<g clip-path="url(#clip0_170_3149)">
<path d="M0 0H215.5C250.57 0 279 28.4299 279 63.5C279 98.5701 250.57 127 215.5 127H0V0Z" fill="url(#paint0_linear_170_3149)"/>
<path d="M238.418 50V138H219.813V67.6602H219.297L199.145 80.293V63.793L220.93 50H238.418Z" fill="white"/>
<path d="M18.222 99.822H26.426V101.362H18.222V99.822ZM19.37 106.346H25.208V107.774H19.37V106.346ZM19.342 109.174H25.18V110.658H19.342V109.174ZM19.874 98.268H21.47V102.958H19.874V98.268ZM23.262 98.268H24.872V102.958H23.262V98.268ZM21.526 104.26H23.066V109.902H21.526V104.26ZM18.614 103.532H26.048V111.176H24.424V105.002H20.168V111.26H18.614V103.532ZM14.666 99.332H17.844V107.732H14.666V106.108H16.318V100.942H14.666V99.332ZM13.812 99.332H15.296V108.866H13.812V99.332ZM32.222 99.822H40.426V101.362H32.222V99.822ZM33.37 106.346H39.208V107.774H33.37V106.346ZM33.342 109.174H39.18V110.658H33.342V109.174ZM33.874 98.268H35.47V102.958H33.874V98.268ZM37.262 98.268H38.872V102.958H37.262V98.268ZM35.526 104.26H37.066V109.902H35.526V104.26ZM32.614 103.532H40.048V111.176H38.424V105.002H34.168V111.26H32.614V103.532ZM28.666 99.332H31.844V107.732H28.666V106.108H30.318V100.942H28.666V99.332ZM27.812 99.332H29.296V108.866H27.812V99.332ZM49.5201 99.3409L46.2388 111.531H44.4142L47.6955 99.3409H49.5201ZM54.6015 99.458H65.2695V101.166H54.6015V99.458ZM55.5675 103.966H64.1495V105.66H55.5675V103.966ZM53.8035 108.698H66.0115V110.42H53.8035V108.698ZM70.7995 102.062L72.4795 102.58C71.5135 104.512 69.9875 106.402 68.5315 107.578C68.2375 107.27 67.5515 106.668 67.1595 106.402C68.6155 105.394 70.0015 103.742 70.7995 102.062ZM74.0195 102.3H75.6855V108.796C75.6855 109.426 75.7835 109.51 76.3995 109.51C76.6795 109.51 77.8975 109.51 78.2335 109.51C78.8075 109.51 78.9195 109.174 79.0035 107.438C79.3675 107.718 80.0675 107.998 80.5155 108.096C80.3195 110.378 79.8715 111.064 78.3735 111.064C78.0095 111.064 76.5395 111.064 76.1895 111.064C74.4815 111.064 74.0195 110.546 74.0195 108.796V102.3ZM78.7515 103.266L80.0115 104.554C78.6255 105.408 76.8055 106.192 75.2095 106.794C75.1115 106.444 74.8455 105.884 74.6215 105.548C76.1195 104.946 77.7295 104.05 78.7515 103.266ZM67.6915 99.304H80.1515V100.914H67.6915V99.304ZM70.8135 98.114H72.4655V102.216H70.8135V98.114ZM75.4335 98.114H77.1135V102.244H75.4335V98.114ZM69.7775 105.002L71.4295 103.336V103.35V111.26H69.7775V105.002Z" fill="white"/>
</g>
<defs>
<linearGradient id="paint0_linear_170_3149" x1="156.984" y1="-2.48351e-06" x2="118.763" y2="123.814" gradientUnits="userSpaceOnUse">
<stop offset="0.0833333" stop-color="#FFD7C6"/>
<stop offset="1" stop-color="#FF902A"/>
</linearGradient>
<clipPath id="clip0_170_3149">
<path d="M0 0H215.5C250.57 0 279 28.4299 279 63.5C279 98.5701 250.57 127 215.5 127H0V0Z" fill="white"/>
</clipPath>
</defs>
</svg>
