<svg width="395" height="402" viewBox="0 0 395 402" fill="none" xmlns="http://www.w3.org/2000/svg">
<g clip-path="url(#clip0_200_5725)">
<path d="M0 198.157C0 89.1741 88.348 0.826172 197.331 0.826172C306.313 0.826172 394.661 89.1741 394.661 198.157V391.586C394.661 397.109 390.184 401.586 384.661 401.586H10C4.47715 401.586 0 397.109 0 391.586V198.157Z" fill="url(#paint0_linear_200_5725)"/>
<path d="M121.222 199.005V433.88H71.5633V246.141H70.1871L16.3999 279.858V235.819L74.5451 199.005H121.222Z" fill="white"/>
</g>
<defs>
<linearGradient id="paint0_linear_200_5725" x1="129" y1="16" x2="317" y2="409.5" gradientUnits="userSpaceOnUse">
<stop stop-color="#FFD7C6"/>
<stop offset="1" stop-color="#FF902A"/>
</linearGradient>
<clipPath id="clip0_200_5725">
<path d="M0 198.157C0 89.1741 88.348 0.826172 197.331 0.826172C306.313 0.826172 394.661 89.1741 394.661 198.157V391.586C394.661 397.109 390.184 401.586 384.661 401.586H10C4.47715 401.586 0 397.109 0 391.586V198.157Z" fill="white"/>
</clipPath>
</defs>
</svg>
