<svg width="279" height="127" viewBox="0 0 279 127" fill="none" xmlns="http://www.w3.org/2000/svg">
<g clip-path="url(#clip0_170_3166)">
<path d="M0 63.5C0 28.4299 28.4299 0 63.5 0H279V127H63.5C28.4299 127 0 98.5701 0 63.5Z" fill="url(#paint0_linear_170_3166)"/>
<path d="M40.1328 135V121.594L71.457 92.5898C74.1211 90.0117 76.3555 87.6914 78.1602 85.6289C79.9935 83.5664 81.3828 81.5469 82.3281 79.5703C83.2734 77.5651 83.7461 75.4023 83.7461 73.082C83.7461 70.5039 83.1589 68.2839 81.9844 66.4219C80.8099 64.5312 79.2057 63.0846 77.1719 62.082C75.138 61.0508 72.832 60.5352 70.2539 60.5352C67.5612 60.5352 65.2122 61.0794 63.207 62.168C61.2018 63.2565 59.6549 64.8177 58.5664 66.8516C57.4779 68.8854 56.9336 71.306 56.9336 74.1133H39.2734C39.2734 68.3555 40.5768 63.3568 43.1836 59.1172C45.7904 54.8776 49.4427 51.5977 54.1406 49.2773C58.8385 46.957 64.2526 45.7969 70.3828 45.7969C76.6849 45.7969 82.1706 46.9141 86.8398 49.1484C91.5378 51.3542 95.1901 54.4193 97.7969 58.3437C100.404 62.2682 101.707 66.7656 101.707 71.8359C101.707 75.1589 101.048 78.4388 99.7305 81.6758C98.4414 84.9128 96.1354 88.5078 92.8125 92.4609C89.4896 96.3854 84.806 101.098 78.7617 106.598L65.9141 119.187V119.789H102.867V135H40.1328Z" fill="white"/>
<path d="M199.312 102.6L200.936 102.908C200.796 103.426 200.628 103.944 200.432 104.42C200.936 104.854 201.468 105.33 201.79 105.652L200.67 106.814C200.46 106.548 200.11 106.198 199.732 105.834C199.27 106.59 198.738 107.248 198.122 107.752C197.856 107.458 197.198 106.912 196.834 106.66C198.066 105.778 198.92 104.308 199.312 102.6ZM209.308 106.226L208.146 107.388C207.754 106.954 207.04 106.338 206.34 105.764C206.06 106.226 205.752 106.632 205.402 106.968C205.164 106.772 204.702 106.464 204.31 106.254C205.556 107.906 207.558 109.39 209.658 110.16C209.252 110.51 208.706 111.224 208.426 111.686C206.732 110.902 205.15 109.642 203.89 108.144V112.218H202.14V108.228C200.88 109.698 199.312 110.916 197.646 111.686C197.38 111.28 196.834 110.608 196.47 110.258C198.738 109.376 200.922 107.64 202.14 105.75V102.516H197.044V100.878H202.14V99.156H203.89V100.878H209.168V102.516H203.89V105.652C203.96 105.764 204.03 105.862 204.1 105.974C204.996 105.176 205.584 103.93 205.864 102.6L207.488 102.894C207.362 103.412 207.208 103.916 207.026 104.392C207.824 105.008 208.79 105.75 209.308 106.226ZM218.73 107.178H217.344V108.102H218.73V107.178ZM221.656 108.102V107.178H220.214V108.102H221.656ZM220.214 110.3H221.656V109.348H220.214V110.3ZM217.344 109.348V110.3H218.73V109.348H217.344ZM215.818 106.282V105.848H223.266V112.176H221.656V111.644H217.344V112.19H215.818V107.01L215.16 107.906C214.922 107.57 214.502 107.066 214.096 106.618V112.218H212.458V107.57C211.996 108.018 211.52 108.41 211.044 108.732C210.904 108.284 210.526 107.458 210.274 107.15C211.66 106.296 213.004 104.826 213.83 103.23H210.792V101.732H212.458V99.156H214.096V101.732H214.67L214.964 101.662L215.874 102.25C215.524 103.258 215.02 104.224 214.446 105.12C214.824 105.414 215.426 105.932 215.818 106.282ZM221.11 103.972V102.964H217.974V103.972H221.11ZM216.504 101.718H222.65V105.218H216.504V101.718ZM215.734 99.716H223.308V101.116H215.734V99.716ZM232.585 100.341L229.303 112.531H227.479L230.76 100.341H232.585ZM239.766 101.648H238.506V104.098H239.766V101.648ZM238.506 108.102H239.766V105.554H238.506V108.102ZM241.306 109.586H238.506V110.65H236.966V100.164H241.306V109.586ZM246.304 110.034H249.524V111.63H241.138V110.034H244.61V106.408H242.034V104.812H244.61V101.62H241.782V100.024H249.328V101.62H246.304V104.812H249.02V106.408H246.304V110.034ZM258.666 107.178H257.28V108.102H258.666V107.178ZM261.592 108.102V107.178H260.15V108.102H261.592ZM260.15 110.3H261.592V109.348H260.15V110.3ZM257.28 109.348V110.3H258.666V109.348H257.28ZM255.754 106.282V105.848H263.202V112.176H261.592V111.644H257.28V112.19H255.754V107.01L255.096 107.906C254.858 107.57 254.438 107.066 254.032 106.618V112.218H252.394V107.57C251.932 108.018 251.456 108.41 250.98 108.732C250.84 108.284 250.462 107.458 250.21 107.15C251.596 106.296 252.94 104.826 253.766 103.23H250.728V101.732H252.394V99.156H254.032V101.732H254.606L254.9 101.662L255.81 102.25C255.46 103.258 254.956 104.224 254.382 105.12C254.76 105.414 255.362 105.932 255.754 106.282ZM261.046 103.972V102.964H257.91V103.972H261.046ZM256.44 101.718H262.586V105.218H256.44V101.718ZM255.67 99.716H263.244V101.116H255.67V99.716Z" fill="white"/>
</g>
<defs>
<linearGradient id="paint0_linear_170_3166" x1="73" y1="-2.51731e-06" x2="191.589" y2="136.886" gradientUnits="userSpaceOnUse">
<stop offset="0.0662451" stop-color="#C7E7FE"/>
<stop offset="0.445761" stop-color="#8BB4E1"/>
<stop offset="0.724969" stop-color="#356BB7"/>
<stop offset="0.888721" stop-color="#1A54AA"/>
<stop offset="1" stop-color="#0C48A3"/>
</linearGradient>
<clipPath id="clip0_170_3166">
<path d="M0 63.5C0 28.4299 28.4299 0 63.5 0H279V127H63.5C28.4299 127 0 98.5701 0 63.5Z" fill="white"/>
</clipPath>
</defs>
</svg>
