<svg width="395" height="402" viewBox="0 0 395 402" fill="none" xmlns="http://www.w3.org/2000/svg">
<g clip-path="url(#clip0_200_5727)">
<rect y="0.826172" width="394.661" height="400.76" rx="70" fill="url(#paint0_linear_200_5727)"/>
<path d="M4.22712 424.296V388.515L87.8323 311.102C94.9428 304.221 100.906 298.028 105.723 292.523C110.616 287.019 114.324 281.628 116.848 276.353C119.371 271.001 120.632 265.228 120.632 259.035C120.632 252.154 119.065 246.229 115.93 241.259C112.795 236.213 108.514 232.352 103.085 229.676C97.657 226.924 91.5022 225.548 84.6211 225.548C77.4342 225.548 71.1648 227 65.8128 229.906C60.4609 232.811 56.3322 236.978 53.4269 242.406C50.5215 247.835 49.0689 254.295 49.0689 261.788H1.93343C1.93343 246.42 5.4122 233.079 12.3697 221.763C19.3273 210.447 29.0755 201.693 41.6144 195.5C54.1532 189.307 68.6035 186.211 84.9652 186.211C101.786 186.211 116.427 189.192 128.889 195.156C141.428 201.043 151.177 209.224 158.134 219.699C165.092 230.173 168.57 242.177 168.57 255.71C168.57 264.579 166.812 273.333 163.295 281.972C159.854 290.612 153.7 300.207 144.831 310.758C135.962 321.233 123.461 333.81 107.329 348.49L73.038 382.092V383.698H171.667V424.296H4.22712Z" fill="white"/>
</g>
<defs>
<linearGradient id="paint0_linear_200_5727" x1="67" y1="1" x2="338" y2="392" gradientUnits="userSpaceOnUse">
<stop stop-color="#C7E7FE"/>
<stop offset="1" stop-color="#0C48A3"/>
</linearGradient>
<clipPath id="clip0_200_5727">
<rect y="0.826172" width="394.661" height="400.76" rx="70" fill="white"/>
</clipPath>
</defs>
</svg>
